<?xml version="1.0" standalone="no"?>
<!DOCTYPE svg PUBLIC "-//W3C//DTD SVG 20010904//EN"
 "http://www.w3.org/TR/2001/REC-SVG-20010904/DTD/svg10.dtd">
<svg version="1.0" xmlns="http://www.w3.org/2000/svg"
 width="600.000000pt" height="600.000000pt" viewBox="0 0 600.000000 600.000000"
 preserveAspectRatio="xMidYMid meet">

<g transform="translate(0.000000,600.000000) scale(0.100000,-0.100000)"
fill="#000000" stroke="none">
<path d="M3934 5361 c-279 -44 -491 -275 -511 -555 -9 -135 43 -311 120 -402
15 -18 27 -38 27 -44 0 -9 -216 -395 -244 -437 -1 -1 -199 113 -441 252 -242
140 -443 251 -447 247 -3 -4 -45 -73 -92 -154 l-85 -147 92 -54 c51 -30 243
-141 427 -247 184 -106 341 -198 348 -204 10 -10 -116 -235 -634 -1132 -355
-615 -647 -1120 -648 -1121 -8 -8 -244 184 -340 277 -181 176 -290 318 -378
495 -85 169 -121 314 -122 480 0 137 17 225 44 225 11 0 110 -16 221 -35 111
-20 203 -34 205 -32 4 4 -346 1150 -354 1159 -6 6 -822 -930 -830 -951 -1 -4
85 -22 191 -40 l193 -33 -14 -72 c-23 -113 -19 -349 7 -473 56 -269 192 -538
393 -778 106 -128 306 -318 441 -418 l114 -86 29 -172 c16 -94 32 -176 36
-182 4 -7 64 10 177 52 l170 63 133 -55 c226 -94 449 -156 668 -188 125 -19
435 -16 545 4 263 48 492 151 658 297 26 23 49 41 51 39 1 -2 58 -71 126 -152
83 -101 126 -144 130 -135 19 35 412 1179 407 1184 -5 5 -1125 -249 -1169
-265 -12 -5 15 -43 128 -178 l144 -173 -41 -37 c-242 -220 -629 -292 -1074
-202 -198 41 -574 180 -567 210 3 10 1274 2220 1286 2236 1 2 197 -110 436
-248 238 -137 437 -251 442 -252 5 -1 49 67 98 151 89 151 89 152 67 166 -12
8 -206 121 -432 251 -225 130 -414 240 -418 244 -4 4 47 104 115 221 l123 212
135 2 c127 2 140 4 215 34 177 71 295 200 361 392 29 85 26 252 -5 349 -77
234 -289 398 -536 415 -38 2 -93 1 -121 -3z m223 -263 c73 -27 146 -96 184
-173 104 -212 -22 -468 -252 -510 -37 -7 -37 -7 -44 34 -11 65 -61 131 -125
164 -49 25 -63 28 -120 24 -36 -3 -74 -8 -86 -12 -32 -10 -49 41 -49 145 0 71
4 94 27 142 84 180 276 257 465 186z"/>
</g>
</svg>
